<?xml version="1.0" encoding="UTF-8" standalone="no"?>
<svg
   width="265"
   height="265"
   fill-rule="evenodd"
   version="1.1"
   id="svg3"
   sodipodi:docname="be in state of intoxication.svg"
   inkscape:version="1.4.2 (unknown)"
   xmlns:inkscape="http://www.inkscape.org/namespaces/inkscape"
   xmlns:sodipodi="http://sodipodi.sourceforge.net/DTD/sodipodi-0.dtd"
   xmlns="http://www.w3.org/2000/svg"
   xmlns:svg="http://www.w3.org/2000/svg">
  <defs
     id="defs3" />
  <sodipodi:namedview
     id="namedview3"
     pagecolor="#ffffff"
     bordercolor="#000000"
     borderopacity="0.25"
     inkscape:showpageshadow="2"
     inkscape:pageopacity="0.0"
     inkscape:pagecheckerboard="0"
     inkscape:deskcolor="#d1d1d1"
     inkscape:zoom="1"
     inkscape:cx="132"
     inkscape:cy="132"
     inkscape:window-width="1920"
     inkscape:window-height="1128"
     inkscape:window-x="0"
     inkscape:window-y="0"
     inkscape:window-maximized="1"
     inkscape:current-layer="svg3" />
  <path
     d="M251.75 132.5c0-65.86-53.39-119.25-119.25-119.25S13.25 66.64 13.25 132.5 66.64 251.75 132.5 251.75s119.25-53.39 119.25-119.25"
     fill="#24578e"
     id="path1" />
  <path
     d="m 170.011,108.29361 a 6.127,6.127 0 0 0 -3.3495,-2.046 l -25.4485,-5.7541 -18.3832,-21.530302 -13.3265,-16.4417 9.4875,-10.2388 c 2.2627,-2.442 -0.9372,-5.5506 1.3255,-7.9926 l 9.0178,-9.7306 -3.2714,-3.0316 -9.0178,9.7306 c -2.2627,2.4409 -5.6056,-0.5126 -7.8683,1.9283 l -9.2818,10.0166 c -4.2922,-0.6501 -7.843,3.212 -6.8805,7.425 l -4.9621,5.3548 c -1.5158,1.6357 1.4817,4.9643 3.1174,6.4801 1.6357,1.5158 5.1821,4.2515 6.6979,2.6147 l 3.2307,-3.4859 12.2771,15.147 0.1122,0.1342 19.7395,23.117602 c 0.8877,1.0395 2.0559,1.7061 3.3033,1.9844 l -8.3468,36.9072 -32.3895,-3.0448 c -1.342,-0.1265 -2.7489,0.1529 -3.9413,0.7821 l -34.2364,18.073 c -3.3924,1.7897 -4.9423,5.9389 -2.8853,9.4743 2.057,3.5354 5.7211,4.9313 9.4501,2.9623 l 32.3829,-17.094 36.3528,3.4177 0.4631,0.1045 -18.4041,18.3568 a 7.128,7.128 0 0 0 -1.9547,3.7356 l -6.8431,38.104 c -0.6776,3.7752 1.8821,7.4239 5.6881,8.107 0,0.5588 7.0906,0.2992 8.1532,-5.621 l 6.4526,-35.9282 25.6806,-25.6135 a 6.985,6.985 0 0 0 2.1109,-3.6267 l 9.3533,-41.3622 36.5673,42.7845 c 2.1879,2.5597 6.0874,2.8314 8.635,0.6303 2.5476,-2.2011 2.8347,-6.0896 0.6303,-8.635 z M 146.2741,86.740208 a 12.397,12.397 0 1 1 24.1824,5.4681 12.397,12.397 0 1 1 -24.1824,-5.4681 m 23.375,-49.9455 c -6.4592,1.7688 -11.0297,5.7871 -9.4358,13.0845 2.7621,12.65 18.887,10.2322 17.0269,0.4741 -1.4949,-7.8419 -13.5509,-2.376 -6.5208,3.0393 l 0.8822,0.6864 c -4.8785,-1.0164 -6.0324,-6.1281 -2.574,-8.2863 10.0441,-6.2656 16.6419,11.9097 2.948,15.4132 -15.8213,4.048 -20.1355,-23.5807 -2.3265,-24.4123 z m 15.7795,37.5001 c -4.3142,2.0119 -6.1721,4.5672 -4.884,9.2026 2.2935,8.2555 13.7896,4.9346 10.8977,-1.8172 -2.5113,-5.8652 -9.3797,0.0803 -5.0017,2.4794 l 0.6479,0.3421 c -4.2174,-0.1452 -3.4353,-4.5925 -0.6424,-6.0962 6.5109,-3.5035 11.1375,10.0408 2.0152,11.7876 -10.1167,1.9382 -14.1482,-14.4815 -3.0316,-15.8983 z m -31.9055,-3.9512 c 2.1197,-2.7423 2.6873,-3.8896 1.4828,-7.2842 -2.3144,-6.5274 -11.7854,0.2816 -6.8343,3.7543 1.9701,1.3827 2.8919,-0.7777 3.5343,-2.0812 0.1012,2.9821 -2.5564,4.2713 -4.6035,2.541 -5.8157,-4.9159 5.3075,-12.6302 8.7054,-5.7156 1.6335,3.3242 1.144,6.6242 -2.2847,8.7846 z m -6.9014,-30.9474 a 1.243,1.243 0 0 0 -2.1329,-0.8844 1.243,1.243 0 0 0 0.8844,2.1329 1.243,1.243 0 0 0 0.8833,-0.3619 l 0.003,-0.0044 a 1.243,1.243 0 0 0 0.3619,-0.8822 z m 0.9482,-2.1967 c 0.5621,0.5621 0.9097,1.3387 0.9097,2.1967 a 3.091,3.091 0 0 1 -0.9075,2.1912 l -0.006,0.0055 c -0.5643,0.5632 -1.3398,0.9108 -2.1934,0.9108 -0.8536,0 -1.6335,-0.3487 -2.1967,-0.9108 a 3.091,3.091 0 0 1 0,-4.3901 l 0.003,-0.0033 a 3.091,3.091 0 0 1 2.1934,-0.9097 c 0.858,0 1.6346,0.3476 2.1967,0.9097 z m -9.8692,40.2963 a 1.243,1.243 0 0 0 -1.2485,-1.2485 c -0.3465,0 -0.6589,0.1386 -0.8844,0.363 a 1.243,1.243 0 0 0 0.8844,2.1329 1.243,1.243 0 0 0 0.8822,-0.3619 l 0.004,-0.0033 a 1.243,1.243 0 0 0 0.3619,-0.8822 z m 0.9482,-2.1967 c 0.5621,0.5632 0.9108,1.3387 0.9108,2.1967 0,0.858 -0.3465,1.6269 -0.9086,2.1912 l -0.006,0.0055 a 3.102,3.102 0 0 1 -4.3901,0 c -0.5621,-0.5621 -0.9097,-1.3387 -0.9097,-2.1967 a 3.091,3.091 0 0 1 0.9097,-2.1934 l 0.004,-0.0044 a 3.091,3.091 0 0 1 2.1934,-0.9097 3.102,3.102 0 0 1 2.1956,0.9097 z m 69.5244,-0.22 a 2.48765,2.48765 0 1 0 -4.9753,0 2.48765,2.48765 0 1 0 4.9753,0 z m -19.6471,-19.5701 c 0.7007,-0.451 1.7842,-1.0043 2.4794,-1.4542 0.0561,-0.0363 0.121,-0.044 0.1848,-0.022 0.0638,0.022 0.1089,0.0693 0.1298,0.1331 a 12.848,12.848 0 0 1 0.5269,5.3207 0.209,0.209 0 0 1 -0.1848,0.1837 c -0.0979,0.0121 -0.1881,-0.044 -0.2222,-0.1375 -0.5797,-1.595 -1.9624,-2.8765 -2.9348,-3.6861 -0.0528,-0.044 -0.0803,-0.1056 -0.0759,-0.1749 0.004,-0.0693 0.0374,-0.1265 0.0957,-0.1639 z m 8.3589,0.0594 c 0.704,0.3872 1.6665,1.0483 2.3672,1.4322 0.0594,0.033 0.0968,0.0858 0.1067,0.1518 0.01,0.066 -0.009,0.1287 -0.055,0.1771 a 12.441,12.441 0 0 1 -4.2548,2.8897 c -0.0913,0.0363 -0.1936,0.0055 -0.2508,-0.0737 a 0.209,0.209 0 0 1 0.0132,-0.2607 c 1.0758,-1.2265 1.5246,-2.9766 1.7633,-4.1723 0.0132,-0.0682 0.055,-0.1199 0.1177,-0.1496 0.0627,-0.0297 0.1298,-0.0275 0.1903,0.0055 z m -1.265,8.2335 c 1.1913,0.1716 2.2814,0.1936 3.212,-0.0253 0.066,-0.0154 0.1298,-0.0011 0.1815,0.0418 0.0517,0.0429 0.0792,0.1023 0.077,0.1705 -0.0418,1.1814 -0.3333,2.5575 -0.5555,3.7741 -0.0165,0.088 -0.0814,0.154 -0.1705,0.1694 -0.0891,0.0154 -0.1727,-0.022 -0.2178,-0.099 a 24.618,24.618 0 0 0 -2.7159,-3.6828 c -0.0594,-0.0671 -0.0704,-0.1606 -0.0275,-0.2398 0.0429,-0.0792 0.1265,-0.1221 0.2156,-0.1089 z m -2.5113,1.6269 c -0.704,1.3838 -1.4355,2.5762 -2.1912,3.6025 -0.0352,0.0484 -0.0484,0.1034 -0.0374,0.1628 0.011,0.0594 0.0418,0.1056 0.0924,0.1386 0.8195,0.5346 1.5598,0.8008 2.2121,0.7744 0.1012,-0.0033 0.1837,-0.077 0.1991,-0.1782 0.2123,-1.3585 0.2343,-2.8446 0.1221,-4.4198 a 0.209,0.209 0 0 0 -0.1683,-0.1914 0.209,0.209 0 0 0 -0.2299,0.1111 z m -7.6087,-2.6895 c 1.4839,0.4301 2.9678,0.3872 4.4517,0.0935 a 0.209,0.209 0 0 0 0.1694,-0.187 c 0.009,-0.0946 -0.0429,-0.1793 -0.1298,-0.2145 -1.3948,-0.5676 -2.7544,-1.3013 -4.0205,-2.475 -0.0638,-0.0583 -0.1507,-0.0737 -0.2299,-0.0374 -0.0792,0.0363 -0.1254,0.1111 -0.1232,0.198 0.0264,0.9515 -0.1155,1.705 -0.264,2.3749 -0.0242,0.1089 0.0396,0.2167 0.1474,0.2486 z m 0.5467,34.9052 c 0.8129,-0.2915 2.0427,-0.5973 2.849,-0.8888 0.0638,-0.022 0.1276,-0.0154 0.1848,0.0209 0.0572,0.0363 0.0913,0.0913 0.0968,0.1595 0.1419,1.5917 -0.0385,3.641002 -0.7227,5.507702 a 0.209,0.209 0 0 1 -0.2222,0.1375 0.209,0.209 0 0 1 -0.1848,-0.1859 c -0.2024,-1.7534 -1.3046,-3.379202 -2.0977,-4.425302 -0.0418,-0.055 -0.0539,-0.121 -0.0341,-0.187 a 0.209,0.209 0 0 1 0.1309,-0.1386 z m 7.8298,4.844402 1.0362,3.6916 c 0.0187,0.0671 0.004,0.1331 -0.0385,0.187 -0.0429,0.0539 -0.1045,0.0825 -0.1749,0.0792 -1.4245,-0.0649 -2.7973,-0.5104 -4.3175,-1.4443 -0.066,-0.0407 -0.1023,-0.1078 -0.1001,-0.1859 0.002,-0.0781 0.0429,-0.143 0.1111,-0.1793 1.4047,-0.7557 2.2231,-1.4773 3.1438,-2.2539 a 0.209,0.209 0 0 1 0.198,-0.0407 c 0.0704,0.0209 0.121,0.0737 0.1408,0.1452 z m -4.6772,4.4539 c 1.5158,0.8635 2.5311,2.1714 4.1085,2.7929 0.0836,0.033 0.1364,0.1122 0.1331,0.2024 -0.0473,1.5488 -0.8349,2.0911 -1.705,3.0657 -0.077,0.0858 -0.2079,0.0946 -0.2948,0.0198 -1.5015,-1.2848 -1.991,-3.2307 -2.5531,-5.8542 -0.0176,-0.0836 0.0132,-0.1639 0.0814,-0.2145 0.0682,-0.0506 0.1551,-0.055 0.2288,-0.0132 z m -3.5937,0.6754 c -1.3519,1.0989 -2.4838,2.1835 -3.4243,3.2527 -0.0396,0.0451 -0.0902,0.0693 -0.1507,0.0715 a 0.209,0.209 0 0 1 -0.1551,-0.0605 c -0.781,-0.7667 -1.2463,-1.5103 -1.3662,-2.2253 a 0.209,0.209 0 0 1 0.132,-0.231 c 1.4322,-0.5566 3.0514,-0.9317 4.8026,-1.1803 a 0.209,0.209 0 0 1 0.2233,0.1243 0.209,0.209 0 0 1 -0.0605,0.2486 z m -6.2469,-4.3164 c 1.4949,0.8019 3.9523,0.8987 5.7684,0.9119 0.0935,10e-4 0.1727,-0.0561 0.2024,-0.1452 a 0.209,0.209 0 0 0 -0.077,-0.2365 c -1.3024,-0.9438 -2.5234,-2.0526 -3.5266,-3.608 -0.044,-0.0682 -0.1177,-0.1034 -0.1991,-0.0957 -0.0814,0.008 -0.1463,0.0583 -0.1749,0.1342 -0.4103,1.0703 -1.5928,2.035 -2.068,2.7335 -0.0352,0.0517 -0.0451,0.1089 -0.0308,0.1694 0.0143,0.0605 0.0506,0.1067 0.1045,0.1353 z M 132.3239,49.721908 c 0.7238,0.0154 1.9536,0.5148 2.6554,0.891 a 0.209,0.209 0 0 1 0.1089,0.2189 c -0.2112,1.3079 -1.1209,3.0635 -2.1483,4.422 -0.0528,0.0693 -0.1375,0.099 -0.2211,0.077 a 0.209,0.209 0 0 1 -0.1562,-0.176 c -0.1485,-1.1022 -0.5115,-3.5013 -0.4543,-5.2294 0.003,-0.1144 0.1001,-0.2057 0.2145,-0.2035 z m 5.5165,4.059 c 0.6215,0.385 1.2815,1.1946 1.6885,1.9294 a 0.209,0.209 0 0 1 -0.0363,0.253 c -0.9801,0.9625 -2.6279,0.9669 -4.3395,1.3486 -0.0891,0.0198 -0.1771,-0.0165 -0.2244,-0.0946 a 0.209,0.209 0 0 1 0.0154,-0.2442 c 0.9449,-1.1693 1.9976,-2.2803 2.6169,-3.1361 a 0.209,0.209 0 0 1 0.2816,-0.0561 z m -3.8852,5.3702 c 0.8492,0.7975 1.7017,1.4223 2.5619,1.7677 0.0638,0.0253 0.1067,0.0737 0.1243,0.1386 0.0176,0.0649 0.005,0.1298 -0.0352,0.1837 -0.693,0.9141 -1.6885,1.8436 -2.5443,2.6851 a 0.209,0.209 0 0 1 -0.2365,0.0418 c -0.0814,-0.0374 -0.1287,-0.1177 -0.1221,-0.2068 a 23.991,23.991 0 0 0 -0.1034,-4.4341 c -0.01,-0.0891 0.0341,-0.1716 0.1155,-0.2123 0.0814,-0.0407 0.1727,-0.0264 0.2387,0.0352 z m -3.3473,-0.1331 c -1.1737,0.8008 -1.7556,1.2485 -2.8842,1.7358 -0.055,0.0242 -0.0946,0.0649 -0.1144,0.1221 -0.0198,0.0572 -0.0176,0.1133 0.01,0.1672 0.4895,0.9603 1.3695,2.0592 2.0152,2.453 0.0935,0.0572 0.2156,0.033 0.2794,-0.055 0.8162,-1.1176 0.5401,-2.6642 1.0142,-4.1855 0.0275,-0.0869 -0.002,-0.1782 -0.0759,-0.2321 -0.0737,-0.0539 -0.1683,-0.0561 -0.2442,-0.0044 z m -3.6234,-5.2349 c 1.1143,1.2848 1.8018,1.7765 3.1922,2.2792 a 0.209,0.209 0 0 0 0.2409,-0.0726 c 0.0572,-0.0759 0.0561,-0.176 -0.001,-0.2519 -0.924,-1.2309 -1.4146,-2.1131 -1.8689,-3.9985 -0.0165,-0.0682 -0.0616,-0.121 -0.1276,-0.1463 -0.066,-0.0253 -0.1342,-0.0187 -0.1925,0.0198 -0.8943,0.583 -1.1308,1.1792 -1.2914,1.9921 -0.0132,0.066 0.003,0.1276 0.0473,0.1782"
     fill="#ffffff"
     id="path2"
     style="stroke-width:1.1" />
  <path
     id="path3" />
</svg>
