<?xml version="1.0" encoding="UTF-8" standalone="no"?>
<svg
   width="265"
   height="265"
   fill-rule="evenodd"
   version="1.1"
   id="svg2"
   sodipodi:docname="ISO 7010 M002 (dec14479).svg"
   inkscape:version="1.4.2 (unknown)"
   xmlns:inkscape="http://www.inkscape.org/namespaces/inkscape"
   xmlns:sodipodi="http://sodipodi.sourceforge.net/DTD/sodipodi-0.dtd"
   xmlns="http://www.w3.org/2000/svg"
   xmlns:svg="http://www.w3.org/2000/svg">
  <defs
     id="defs2" />
  <sodipodi:namedview
     id="namedview2"
     pagecolor="#ffffff"
     bordercolor="#000000"
     borderopacity="0.25"
     inkscape:showpageshadow="2"
     inkscape:pageopacity="0.0"
     inkscape:pagecheckerboard="0"
     inkscape:deskcolor="#d1d1d1"
     inkscape:zoom="3.3283019"
     inkscape:cx="132.5"
     inkscape:cy="132.5"
     inkscape:window-width="1920"
     inkscape:window-height="1128"
     inkscape:window-x="0"
     inkscape:window-y="0"
     inkscape:window-maximized="1"
     inkscape:current-layer="svg2" />
  <g
     id="g2"
     transform="matrix(0.9,0,0,0.9,13.25,13.25)">
    <path
       d="M 265,132.5 C 265,59.322 205.679,0 132.5,0 59.321,0 0,59.322 0,132.5 0,205.678 59.322,265 132.5,265 205.678,265 265,205.678 265,132.5"
       fill="#ffffff"
       id="path1" />
    <path
       d="m 107.546,73.095 c 0,-15.921 -12.906,-28.827 -28.827,-28.827 -15.921,0 -28.827,12.906 -28.827,28.827 0,15.921 12.906,28.827 28.827,28.827 15.921,0 28.828,-12.906 28.828,-28.827 z m 134.165,53.851 -40.961,32.769 -7.336,-3.249 c -2.19,-11.378 -15.097,-16.983 -25.636,-11.353 l -14.525,-6.427 44.314,-30.198 z m -104.005,73.676 a 16.09,16.09 0 0 1 -21.143,-4.488 L 91.254,161.278 c -1.211,-1.669 -3.756,0.177 -2.546,1.845 l 19.88,27.378 v 48.28 c -25.784,-7.433 -49.3,-21.549 -68.486,-48.428 v -64.947 a 16.86,16.86 0 0 1 17.587,-16.915 l 33.68,1.312 c 5.646,0.22 10.4,2.981 13.388,7.776 l 30.911,49.597 31.444,-18.943 c 16.064,-8.925 29.979,6.605 22.441,19.927 a 15.22,15.22 0 0 1 -5.449,5.593 v 0 z m 14.244,-64.854 -16.886,-37.813 44.762,-27.421 14.257,36.522 z m -4.689,-2.789 -30.694,-36.684 52.402,-30.651 3.627,5.632 -41.521,25.457 z m 2.019,7.313 -22.199,7.158 -14.671,-23.541 18.241,-5.881 z"
       fill="#000000"
       id="path2" />
  </g>
  <path
     d="M 238.369,132.5 C 238.369,74.03 190.97,26.631 132.5,26.631 a 105.42,105.42 0 0 0 -67.175,24.04 l 149.366,148.554 c 14.802,-18.209 23.678,-41.429 23.678,-66.725 z M 50.309,65.775 c -14.801,18.21 -23.678,41.429 -23.678,66.725 0,58.47 47.399,105.869 105.869,105.869 25.503,0 48.899,-9.019 67.175,-24.04 z M 265,132.5 C 265,59.322 205.678,0 132.5,0 59.322,0 0,59.322 0,132.5 0,205.678 59.322,265 132.5,265 205.678,265 265,205.678 265,132.5"
     fill="#b71f2e"
     id="path2-9" />
</svg>
