<?xml version="1.0" encoding="UTF-8" standalone="no"?>
<svg
   width="265"
   height="265"
   fill-rule="evenodd"
   version="1.1"
   id="svg3"
   sodipodi:docname="put finger into the nozzle of a hydromassage.svg"
   inkscape:version="1.4.2 (unknown)"
   xmlns:inkscape="http://www.inkscape.org/namespaces/inkscape"
   xmlns:sodipodi="http://sodipodi.sourceforge.net/DTD/sodipodi-0.dtd"
   xmlns="http://www.w3.org/2000/svg"
   xmlns:svg="http://www.w3.org/2000/svg">
  <defs
     id="defs3" />
  <sodipodi:namedview
     id="namedview3"
     pagecolor="#ffffff"
     bordercolor="#000000"
     borderopacity="0.25"
     inkscape:showpageshadow="2"
     inkscape:pageopacity="0.0"
     inkscape:pagecheckerboard="0"
     inkscape:deskcolor="#d1d1d1"
     inkscape:zoom="3.3283019"
     inkscape:cx="132.5"
     inkscape:cy="132.5"
     inkscape:window-width="1920"
     inkscape:window-height="1128"
     inkscape:window-x="0"
     inkscape:window-y="0"
     inkscape:window-maximized="1"
     inkscape:current-layer="svg3" />
  <path
     d="M251.75 132.5c0-65.86-53.39-119.25-119.25-119.25S13.25 66.64 13.25 132.5 66.64 251.75 132.5 251.75s119.25-53.39 119.25-119.25"
     fill="#24578e"
     id="path1" />
  <path
     d="m 171.29425,208.97559 a 2.1296,2.1296 0 1 0 -4.2592,0 2.1296,2.1296 0 1 0 4.2592,0 z m 1.4377,-3.5673 a 5.027,5.027 0 0 1 0,7.1346 5.027,5.027 0 0 1 -7.1346,0 5.027,5.027 0 0 1 0,-7.1346 5.027,5.027 0 0 1 7.1346,0 z m -12.4553,15.246 a 2.1296,2.1296 0 1 0 -4.2592,0 2.1296,2.1296 0 1 0 4.2592,0 z m 1.4377,-3.5673 a 5.027,5.027 0 0 1 -3.5673,8.6119 5.027,5.027 0 0 1 -5.0446,-5.0446 5.027,5.027 0 0 1 5.0446,-5.0446 5.027,5.027 0 0 1 3.5673,1.4773 z M 113.47605,27.965091 c 6.7177,13.5311 14.8808,25.2868 24.6224,35.1208 9.7251,9.8186 21.0408,17.7375 34.0813,23.6159 l -1.7083,3.7906 c -13.5069,-6.0885 -25.2329,-14.2978 -35.3166,-24.4783 -10.0683,-10.164 -18.4888,-22.2827 -25.4045,-36.2109 z m -25.9479,22.3157 c 9.7889,9.1146 19.5954,16.4923 29.4151,22.1551 9.7834,5.6408 19.6009,9.592 29.4492,11.8745 l -0.9273,4.0502 c -10.2366,-2.3727 -20.4325,-6.4757 -30.5877,-12.331 -10.1178,-5.8344 -20.1795,-13.3969 -30.1796,-22.7073 z m -38.8421,21.3785 c 17.4471,11.0319 33.7315,17.8882 50.765,22.5456 17.0808,4.6695 34.991,7.148899 55.6028,9.410499 l -0.4389,4.1316 c -20.7834,-2.2814 -38.8729,-4.7883 -56.254,-9.541399 -17.4284,-4.7652 -34.0758,-11.7711 -51.887,-23.034 z m 99.0308,-22.6655 a 2.1296,2.1296 0 1 0 -4.2592,0 2.1296,2.1296 0 1 0 4.2592,0 z m 1.4377,-3.5673 a 5.027,5.027 0 0 1 0,7.1346 5.027,5.027 0 0 1 -8.6119,-3.5673 5.027,5.027 0 0 1 5.0446,-5.0446 5.027,5.027 0 0 1 3.5673,1.4773 z m 11.3432,21.1959 a 2.1296,2.1296 0 1 0 -4.2592,0 2.1296,2.1296 0 1 0 4.2592,0 z m 1.4377,-3.5673 a 5.027,5.027 0 0 1 0,7.1346 5.027,5.027 0 0 1 -7.1346,0 5.027,5.027 0 0 1 3.5673,-8.6119 5.027,5.027 0 0 1 3.5673,1.4773 z m 14.2076,-0.1793 a 2.1296,2.1296 0 1 0 -4.2592,0 2.1296,2.1296 0 1 0 4.2592,0 z m 1.4377,-3.5673 a 5.027,5.027 0 0 1 0,7.1346 5.027,5.027 0 0 1 -7.1346,0 5.027,5.027 0 0 1 0,-7.1346 5.027,5.027 0 0 1 7.1346,0 z m -55.2057,0.9229 a 2.1296,2.1296 0 1 0 -4.2592,0 2.1296,2.1296 0 1 0 4.2592,0 z m 1.4377,-3.5673 a 5.027,5.027 0 0 1 0,7.1346 5.027,5.027 0 0 1 -7.1346,0 5.027,5.027 0 0 1 0,-7.1346 5.027,5.027 0 0 1 7.1346,0 z m -19.5074,-3.4837 a 2.1296,2.1296 0 1 0 -4.2592,0 2.1296,2.1296 0 1 0 4.2592,0 z m 1.4377,-3.5673 a 5.027,5.027 0 0 1 0,7.1346 5.027,5.027 0 0 1 -7.1346,0 5.027,5.027 0 0 1 0,-7.1346 5.027,5.027 0 0 1 7.1346,0 z m -40.2204,48.741 a 2.1296,2.1296 0 1 0 -4.2592,0 2.1296,2.1296 0 1 0 4.2592,0 z m 1.4377,-3.5673 a 5.027,5.027 0 0 1 0,7.134599 5.027,5.027 0 0 1 -7.1346,0 5.027,5.027 0 0 1 0,-7.134599 5.027,5.027 0 0 1 7.1346,0 z m -14.8797,15.025999 a 2.1296,2.1296 0 1 0 -4.2592,0 2.1296,2.1296 0 1 0 4.2592,0 z m 1.4377,-3.5673 a 5.027,5.027 0 0 1 0,7.1346 5.027,5.027 0 0 1 -7.1346,0 5.027,5.027 0 0 1 3.5673,-8.6119 5.027,5.027 0 0 1 3.5673,1.4773 z m 84.062,-11.637999 a 2.1296,2.1296 0 1 0 -4.2592,0 2.1296,2.1296 0 1 0 4.2592,0 z m 1.4377,-3.5673 a 5.027,5.027 0 0 1 0,7.1346 5.027,5.027 0 0 1 -7.1346,0 5.027,5.027 0 0 1 0,-7.1346 5.027,5.027 0 0 1 7.1346,0 z m 17.9542,-1.0604 a 2.1296,2.1296 0 1 0 -4.2592,0 2.1296,2.1296 0 1 0 4.2592,0 z m 1.4377,-3.5673 a 5.027,5.027 0 0 1 0,7.1346 5.027,5.027 0 0 1 -8.6119,-3.5673 5.027,5.027 0 0 1 5.0446,-5.0446 5.027,5.027 0 0 1 3.5673,1.4773 z m 9.801,23.620299 a 2.1296,2.1296 0 1 0 -4.2592,0 2.1296,2.1296 0 1 0 4.2592,0 z m 1.4377,-3.5673 a 5.027,5.027 0 0 1 0,7.1346 5.027,5.027 0 0 1 -7.1346,0 5.027,5.027 0 0 1 0,-7.1346 5.027,5.027 0 0 1 7.1346,0 m -51.2952,67.826 a 22.077,22.077 0 0 1 16.0908,-19.6647 l -9.1652,0.2761 c -10.0232,0.3014 -18.0114,8.4898 -18.1775,18.4151 a 1.21,1.21 0 0 0 1.2914,1.2738 z m 38.2525,-29.8342 -29.9519,1.6764 10.4423,5.3328 -0.2739,6.0181 c -9.7922,1.881 -16.379,11.1562 -15.0326,20.9506 a 1.21,1.21 0 0 0 1.4707,1.0615 l 26.818,-4.9731 a 6.6,6.6 0 0 0 5.445,-6.2524 z m 18.8947,5.6287 c 2.4585,9.6965 6.5769,17.6847 11.6754,23.2298 4.9434,5.3746 10.7998,8.4205 16.9114,8.4205 8.3677,0 16.0215,-5.6188 21.6293,-14.7015 5.7904,-9.3786 9.3731,-22.3861 9.3731,-36.7983 0,-14.4122 -3.5816,-27.4197 -9.3731,-36.797199 -5.6078,-9.0827 -13.2616,-14.7015 -21.6293,-14.7015 -5.7343,0 -11.2607,2.6829 -16.0193,7.4822 -4.8873,4.9302 -8.9573,12.0637 -11.638,20.822999 l -3.8027,-1.7413 c 2.8853,-9.179499 7.2479,-16.715599 12.4971,-22.009899 5.544,-5.5924 12.0835,-8.7186 18.9629,-8.7186 9.9044,0 18.7935,6.3767 25.1592,16.6859 6.1831,10.013299 10.0078,23.798499 10.0078,38.977399 0,15.1789 -3.8247,28.9641 -10.0078,38.9774 -6.3657,10.3092 -15.2548,16.6859 -25.1592,16.6859 -7.3216,0 -14.234,-3.5332 -19.9694,-9.7702 -5.4593,-5.9367 -9.8637,-14.355 -12.5125,-24.4937 z m 22.3443,0.6798 14.465,7.4206 a 34.023,34.023 0 0 0 0.9845,-1.6962 c 3.6938,-6.8002 5.9796,-16.2514 5.9796,-26.7388 0,-10.4874 -2.2858,-19.9386 -5.9796,-26.7388 a 31.889,31.889 0 0 0 -1.9734,-3.188899 l -13.7137,7.773699 c 1.7886,1.2584 3.3429,3.3165 4.5639,5.9642 1.8733,4.0579 3.0316,9.6151 3.0316,15.7058 0,6.0907 -1.1594,11.6479 -3.0316,15.7058 -1.1671,2.5289 -2.6389,4.5221 -4.3274,5.7915 z m 11.9966,10.8163 -19.2445,-9.8736 c -1.2925,-0.5852 -2.486,-1.5664 -3.5519,-2.8798 -1.9173,-2.3617 -3.3308,-5.7761 -4.0381,-8.7175 l -66.3883,3.7631 c -15.2317,11.9262 -18.7671,24.3309 -12.9107,37.1195 l 20.6569,4.8422 13.222,-3.8544 c 17.6286,-5.1392 25.1317,5.6034 28.7386,14.8291 l -40.5515,11.088 c -8.2929,2.2682 -15.6079,3.3341 -24.2044,3.5288 l -39.0797,0.8833 c -17.9036,-15.8059 -30.4106,-37.5815 -34.4014,-62.216 l 43.9582,-34.6137 c 4.1162,-3.2406 8.7538,-4.6442 13.9766,-4.2185 l 96.8044,7.8881 c 0.572,-2.948 2.1626,-6.7892 4.0084,-9.1762 1.0175,-1.3156 2.1571,-2.3232 3.3924,-2.9645 l 18.37,-10.413699 c -2.5949,-2.541 -5.5022,-3.9776 -8.5459,-3.9776 -3.1856,0 -6.3063,1.6104 -9.0783,4.5298 -2.937,3.094299 -5.4593,7.608699 -7.2699,13.228599 l -3.7939,-1.738 c 1.9998,-6.0181 4.7894,-10.913099 8.0542,-14.353899 3.5673,-3.7587 7.7187,-5.8311 12.0868,-5.8311 6.7023,0 12.6643,4.807 16.885,12.576299 4.015,7.3931 6.4999,17.5516 6.4999,28.7232 0,11.1716 -2.4838,21.3301 -6.4999,28.7232 -4.2196,7.7693 -10.1827,12.5763 -16.885,12.5763 -4.6662,0 -9.0717,-2.3639 -12.782,-6.5967 -3.3682,-3.8423 -6.1776,-9.262 -8.0619,-15.8444 l 3.8852,-1.5455 c 1.7171,6.1776 4.2636,11.1936 7.3007,14.6575 2.9051,3.3132 6.2381,5.1645 9.6591,5.1645 3.5398,0 6.8959,-1.9426 9.7889,-5.3053 z m -22.6105,-21.7107 c 0.7722,2.6532 1.8161,4.8367 3.0349,6.3382 1.0109,1.2452 2.0988,1.958 3.1702,1.958 1.7897,0 3.5552,-1.8854 4.9621,-4.9335 0.5566,-1.2067 1.0417,-2.5773 1.4388,-4.0777 z m 12.892,-19.3127 c -0.4411,-1.9646 -1.0252,-3.7378 -1.7248,-5.2547 -1.4069,-3.047 -3.1724,-4.9335 -4.9621,-4.9335 -1.1242,0 -2.2649,0.781 -3.3143,2.1395 -1.2793,1.6533 -2.3562,4.0634 -3.1141,6.9784 z"
     fill="#ffffff"
     id="path2"
     style="stroke-width:1.1" />
  <path
     id="path3" />
</svg>
