<?xml version="1.0" encoding="UTF-8" standalone="no"?>
<svg
   width="265"
   height="265"
   fill-rule="evenodd"
   version="1.1"
   id="svg3"
   sodipodi:docname="to be serviced by users.svg"
   inkscape:version="1.4.2 (unknown)"
   xmlns:inkscape="http://www.inkscape.org/namespaces/inkscape"
   xmlns:sodipodi="http://sodipodi.sourceforge.net/DTD/sodipodi-0.dtd"
   xmlns="http://www.w3.org/2000/svg"
   xmlns:svg="http://www.w3.org/2000/svg">
  <defs
     id="defs3" />
  <sodipodi:namedview
     id="namedview3"
     pagecolor="#ffffff"
     bordercolor="#000000"
     borderopacity="0.25"
     inkscape:showpageshadow="2"
     inkscape:pageopacity="0.0"
     inkscape:pagecheckerboard="0"
     inkscape:deskcolor="#d1d1d1"
     inkscape:zoom="3.3283019"
     inkscape:cx="132.5"
     inkscape:cy="132.5"
     inkscape:window-width="1920"
     inkscape:window-height="1128"
     inkscape:window-x="0"
     inkscape:window-y="0"
     inkscape:window-maximized="1"
     inkscape:current-layer="svg3" />
  <path
     d="M251.75 132.5c0-65.86-53.39-119.25-119.25-119.25S13.25 66.64 13.25 132.5 66.64 251.75 132.5 251.75s119.25-53.39 119.25-119.25"
     fill="#24578e"
     id="path1" />
  <path
     d="m 108.42055,120.29775 v 7.5724 a 10.868,10.868 0 0 1 -1.7765,5.9609 h 1.98 c 3.6212,0 6.5824,2.9612 6.5824,6.5824 v 0 c 0,3.6212 -2.9612,6.5824 -6.5824,6.5824 h -7.722 v 80.7631 a 3.443,3.443 0 0 1 -3.4331,3.4331 v 0 a 3.443,3.443 0 0 1 -3.4331,-3.4331 v -80.7631 h -7.722 c -3.6212,0 -6.5824,-2.9612 -6.5824,-6.5824 v 0 c 0,-3.6212 2.9612,-6.5824 6.5824,-6.5824 h 1.9811 c -1.1231,-1.7182 -1.7765,-3.7664 -1.7765,-5.9609 v -7.5724 c -3.7917,-3.1548 -6.215,-7.9046 -6.215,-13.1945 V 52.574051 c 0,-9.4424 7.7242,-17.1666 17.1666,-17.1666 v 0 c 9.4424,0 17.1666,7.7242 17.1666,17.1666 v 54.530299 c 0,5.2888 -2.4233,10.0397 -6.215,13.1945 m 65.0694,-26.619999 v 74.389699 c 10.8889,4.8774 18.4745,15.8092 18.4745,28.512 0,17.2458 -13.981,31.2268 -31.2268,31.2268 -3.4408,0 -6.7529,-0.5566 -9.8483,-1.584 l 10.142,-10.142 c 4.9654,-4.9654 4.9654,-13.09 0,-18.0554 l -3.8577,-3.8577 c -4.9654,-4.9654 -13.09,-4.9654 -18.0554,0 l -8.9276,8.9276 a 31.394,31.394 0 0 1 -0.6809,-6.5164 c 0,-12.1935 6.9894,-22.7557 17.1798,-27.8971 a 31.955,31.955 0 0 1 1.2947,-0.616 V 93.679951 l -0.7414,-0.3443 c -10.4907,-5.0347 -17.7331,-15.7564 -17.7331,-28.1699 0,-17.2458 13.9821,-31.2268 31.2279,-31.2268 a 31.207,31.207 0 0 1 9.8483,1.584 l -10.142,10.142 c -4.9654,4.9654 -4.9654,13.09 0,18.0554 l 3.8577,3.8577 c 4.9654,4.9654 13.09,4.9654 18.0554,0 l 8.9276,-8.9276 a 31.394,31.394 0 0 1 0.6798,6.5164 c 0,12.7028 -7.5867,23.6346 -18.4745,28.512"
     fill="#ffffff"
     id="path2"
     style="stroke-width:1.1" />
  <path
     id="path3" />
</svg>
